# xmcd
#
# Track frame offsets: 
#        150
#        28875
#        45825
#        60525
#        71700
#        75975
#        102525
#        125925
#
# Disc length: 2011 seconds
#
# Revision: 0
# Processed by: cddbd v1.5.2PL0 Copyright (c) Steve Scherf et al.
# Submitted via: ExactAudioCopy v1.3
#
DISCID=6a07d908
DTITLE=Roy Leung - 水點分裂的瞬間
DYEAR=2019
DGENRE=Country
TTITLE0=海洋的歌 Ocean song
TTITLE1=Cafe De Alice Feat. The Backpackers
TTITLE2=相思樹 Acacia Confusa feat. Mathias Daines
TTITLE3=燈塔·彼岸 Lighthouse and The other shore
TTITLE4=空間 Space
TTITLE5=極星 Polaris
TTITLE6=水點分裂的瞬間 Split
TTITLE7=水點分裂的瞬間 Split Demo (01-07-2017)
EXTD=
EXTT0=
EXTT1=
EXTT2=
EXTT3=
EXTT4=
EXTT5=
EXTT6=
EXTT7=
PLAYORDER=
